<svg xmlns="http://www.w3.org/2000/svg" width="1200" height="520" viewBox="0 0 1200 520" fill="none">
  <rect width="1200" height="520" rx="28" fill="#F7F8F4"/>
  <rect x="48" y="58" width="190" height="108" rx="24" fill="#E8EFDA" stroke="#B5C48B"/>
  <text x="76" y="104" fill="#28321E" font-size="22" font-family="Inter, Arial, sans-serif" font-weight="700">Naive FP32</text>
  <text x="76" y="136" fill="#4A593A" font-size="16" font-family="Inter, Arial, sans-serif">Expose cost model</text>
  <rect x="266" y="58" width="190" height="108" rx="24" fill="#E2ECD0" stroke="#ADBF7D"/>
  <text x="294" y="104" fill="#28321E" font-size="22" font-family="Inter, Arial, sans-serif" font-weight="700">Tiled FP32</text>
  <text x="294" y="136" fill="#4A593A" font-size="16" font-family="Inter, Arial, sans-serif">Reuse shared tiles</text>
  <rect x="484" y="58" width="190" height="108" rx="24" fill="#DBE8C5" stroke="#A6BA73"/>
  <text x="512" y="104" fill="#28321E" font-size="22" font-family="Inter, Arial, sans-serif" font-weight="700">Bank-free</text>
  <text x="512" y="136" fill="#4A593A" font-size="16" font-family="Inter, Arial, sans-serif">Stabilize access</text>
  <rect x="702" y="58" width="190" height="108" rx="24" fill="#D5E4BA" stroke="#9FB468"/>
  <text x="730" y="104" fill="#28321E" font-size="22" font-family="Inter, Arial, sans-serif" font-weight="700">Double buffer</text>
  <text x="730" y="136" fill="#4A593A" font-size="16" font-family="Inter, Arial, sans-serif">Hide memory latency</text>
  <rect x="920" y="58" width="232" height="108" rx="24" fill="#CEDFAF" stroke="#97AE5D"/>
  <text x="948" y="104" fill="#28321E" font-size="22" font-family="Inter, Arial, sans-serif" font-weight="700">Tensor Core WMMA</text>
  <text x="948" y="136" fill="#4A593A" font-size="16" font-family="Inter, Arial, sans-serif">Guarded mixed precision</text>
  <path d="M238 112H254" stroke="#81A03D" stroke-width="4" stroke-linecap="round"/>
  <path d="M456 112H472" stroke="#81A03D" stroke-width="4" stroke-linecap="round"/>
  <path d="M674 112H690" stroke="#81A03D" stroke-width="4" stroke-linecap="round"/>
  <path d="M892 112H908" stroke="#81A03D" stroke-width="4" stroke-linecap="round"/>
  <rect x="82" y="254" width="1036" height="182" rx="28" fill="#FBFBF8" stroke="#D3D9CE"/>
  <text x="116" y="304" fill="#27311E" font-size="22" font-family="Inter, Arial, sans-serif" font-weight="700">Attached rails</text>
  <text x="116" y="340" fill="#4C5940" font-size="17" font-family="Inter, Arial, sans-serif">Architecture explains why each stage exists. Validation constrains what each speedup is allowed to claim. Research adds papers, repos, and historical context.</text>
  <text x="116" y="384" fill="#4C5940" font-size="17" font-family="Inter, Arial, sans-serif">That combination turns a kernel ladder into a whitepaper, not just a benchmark artifact.</text>
</svg>
