<svg xmlns="http://www.w3.org/2000/svg" width="1200" height="760" viewBox="0 0 1200 760" fill="none">
  <rect width="1200" height="760" rx="32" fill="#0F140F"/>
  <rect x="48" y="48" width="1104" height="664" rx="28" fill="#151B15" stroke="#2B352C"/>
  <rect x="96" y="108" width="250" height="178" rx="24" fill="#1D251B" stroke="#5E7440"/>
  <text x="124" y="156" fill="#E3EBD8" font-size="20" font-family="Inter, Arial, sans-serif" font-weight="700">Project thesis</text>
  <text x="124" y="194" fill="#B8C6A8" font-size="16" font-family="Inter, Arial, sans-serif">Readable SGEMM ladder</text>
  <text x="124" y="220" fill="#B8C6A8" font-size="16" font-family="Inter, Arial, sans-serif">Explicit trust boundary</text>
  <text x="124" y="246" fill="#B8C6A8" font-size="16" font-family="Inter, Arial, sans-serif">Interview-grade explanation</text>
  <rect x="422" y="98" width="356" height="560" rx="28" fill="#EEF6DB"/>
  <text x="456" y="142" fill="#24311D" font-size="24" font-family="Inter, Arial, sans-serif" font-weight="700">Kernel ladder</text>
  <rect x="456" y="174" width="286" height="58" rx="18" fill="#D9E8BA"/>
  <text x="482" y="207" fill="#2A351F" font-size="16" font-family="Inter, Arial, sans-serif">Naive FP32,</text>
  <text x="482" y="225" fill="#2A351F" font-size="16" font-family="Inter, Arial, sans-serif">establish the cost model</text>
  <rect x="456" y="248" width="286" height="58" rx="18" fill="#CFE0A9"/>
  <text x="482" y="281" fill="#2A351F" font-size="16" font-family="Inter, Arial, sans-serif">Tiled FP32, shared-memory reuse</text>
  <rect x="456" y="322" width="286" height="58" rx="18" fill="#C2D798"/>
  <text x="482" y="348" fill="#2A351F" font-size="16" font-family="Inter, Arial, sans-serif">Bank-free FP32,</text>
  <text x="482" y="366" fill="#2A351F" font-size="16" font-family="Inter, Arial, sans-serif">conflict mitigation</text>
  <rect x="456" y="396" width="286" height="58" rx="18" fill="#B5CE88"/>
  <text x="482" y="422" fill="#2A351F" font-size="16" font-family="Inter, Arial, sans-serif">Double buffer,</text>
  <text x="482" y="440" fill="#2A351F" font-size="16" font-family="Inter, Arial, sans-serif">overlap load and compute</text>
  <rect x="456" y="470" width="286" height="58" rx="18" fill="#A7C578"/>
  <text x="482" y="496" fill="#26321C" font-size="16" font-family="Inter, Arial, sans-serif">Tensor Core WMMA,</text>
  <text x="482" y="514" fill="#26321C" font-size="16" font-family="Inter, Arial, sans-serif">guarded fast path</text>
  <rect x="456" y="556" width="286" height="64" rx="18" fill="#1D251B" stroke="#5E7440"/>
  <text x="482" y="587" fill="#E3EBD8" font-size="16" font-family="Inter, Arial, sans-serif">Validation and research</text>
  <text x="482" y="607" fill="#E3EBD8" font-size="16" font-family="Inter, Arial, sans-serif">stay attached</text>
  <rect x="854" y="108" width="250" height="132" rx="24" fill="#17202A" stroke="#3B4E67"/>
  <text x="882" y="156" fill="#D6E3F8" font-size="20" font-family="Inter, Arial, sans-serif" font-weight="700">Validation</text>
  <text x="882" y="194" fill="#A8BCD7" font-size="16" font-family="Inter, Arial, sans-serif">Correctness policy</text>
  <text x="882" y="220" fill="#A8BCD7" font-size="16" font-family="Inter, Arial, sans-serif">Benchmark scope</text>
  <rect x="854" y="268" width="250" height="132" rx="24" fill="#261C16" stroke="#6B5544"/>
  <text x="882" y="316" fill="#F2E2D4" font-size="20" font-family="Inter, Arial, sans-serif" font-weight="700">Research</text>
  <text x="882" y="354" fill="#D8BCA6" font-size="16" font-family="Inter, Arial, sans-serif">References and papers</text>
  <text x="882" y="380" fill="#D8BCA6" font-size="16" font-family="Inter, Arial, sans-serif">Related projects and evolution</text>
  <rect x="854" y="428" width="250" height="132" rx="24" fill="#211A29" stroke="#5B4A72"/>
  <text x="882" y="476" fill="#E7DFF9" font-size="20" font-family="Inter, Arial, sans-serif" font-weight="700">Overview</text>
  <text x="882" y="514" fill="#C2B6DE" font-size="16" font-family="Inter, Arial, sans-serif">Guide, quick paths, repo alignment</text>
  <path d="M346 196H394" stroke="#8BAA44" stroke-width="4" stroke-linecap="round"/>
  <path d="M778 176H826" stroke="#9ABA52" stroke-width="4" stroke-linecap="round"/>
  <path d="M778 330H826" stroke="#9ABA52" stroke-width="4" stroke-linecap="round"/>
  <path d="M778 490H826" stroke="#9ABA52" stroke-width="4" stroke-linecap="round"/>
</svg>
