<svg xmlns="http://www.w3.org/2000/svg" width="1200" height="760" viewBox="0 0 1200 760" fill="none">
  <rect width="1200" height="760" rx="32" fill="#F6F7F2"/>
  <rect x="48" y="48" width="1104" height="664" rx="28" fill="#FCFCFA" stroke="#DADFD4"/>
  <rect x="96" y="108" width="250" height="178" rx="24" fill="#EFF3E3" stroke="#B8C69C"/>
  <text x="124" y="156" fill="#2C3722" font-size="20" font-family="Inter, Arial, sans-serif" font-weight="700">Project thesis</text>
  <text x="124" y="194" fill="#48563A" font-size="16" font-family="Inter, Arial, sans-serif">Readable SGEMM ladder</text>
  <text x="124" y="220" fill="#48563A" font-size="16" font-family="Inter, Arial, sans-serif">Explicit trust boundary</text>
  <text x="124" y="246" fill="#48563A" font-size="16" font-family="Inter, Arial, sans-serif">Interview-grade explanation</text>
  <rect x="422" y="98" width="356" height="560" rx="28" fill="#12180F"/>
  <text x="456" y="142" fill="#E9EFDF" font-size="24" font-family="Inter, Arial, sans-serif" font-weight="700">Kernel ladder</text>
  <rect x="456" y="174" width="286" height="58" rx="18" fill="#212C18"/>
  <text x="482" y="207" fill="#CFE4AA" font-size="16" font-family="Inter, Arial, sans-serif">Naive FP32,</text>
  <text x="482" y="225" fill="#CFE4AA" font-size="16" font-family="Inter, Arial, sans-serif">establish the cost model</text>
  <rect x="456" y="248" width="286" height="58" rx="18" fill="#27361A"/>
  <text x="482" y="281" fill="#D7EEB1" font-size="16" font-family="Inter, Arial, sans-serif">Tiled FP32, shared-memory reuse</text>
  <rect x="456" y="322" width="286" height="58" rx="18" fill="#30421D"/>
  <text x="482" y="348" fill="#E0F4BB" font-size="16" font-family="Inter, Arial, sans-serif">Bank-free FP32,</text>
  <text x="482" y="366" fill="#E0F4BB" font-size="16" font-family="Inter, Arial, sans-serif">conflict mitigation</text>
  <rect x="456" y="396" width="286" height="58" rx="18" fill="#39501F"/>
  <text x="482" y="422" fill="#E8F9C8" font-size="16" font-family="Inter, Arial, sans-serif">Double buffer,</text>
  <text x="482" y="440" fill="#E8F9C8" font-size="16" font-family="Inter, Arial, sans-serif">overlap load and compute</text>
  <rect x="456" y="470" width="286" height="58" rx="18" fill="#456323"/>
  <text x="482" y="496" fill="#F0FCD4" font-size="16" font-family="Inter, Arial, sans-serif">Tensor Core WMMA,</text>
  <text x="482" y="514" fill="#F0FCD4" font-size="16" font-family="Inter, Arial, sans-serif">guarded fast path</text>
  <rect x="456" y="556" width="286" height="64" rx="18" fill="#EFF3E3" stroke="#93A66B"/>
  <text x="482" y="587" fill="#2D3821" font-size="16" font-family="Inter, Arial, sans-serif">Validation and research</text>
  <text x="482" y="607" fill="#2D3821" font-size="16" font-family="Inter, Arial, sans-serif">stay attached</text>
  <rect x="854" y="108" width="250" height="132" rx="24" fill="#EEF1F9" stroke="#C5D0E8"/>
  <text x="882" y="156" fill="#24314A" font-size="20" font-family="Inter, Arial, sans-serif" font-weight="700">Validation</text>
  <text x="882" y="194" fill="#4A5772" font-size="16" font-family="Inter, Arial, sans-serif">Correctness policy</text>
  <text x="882" y="220" fill="#4A5772" font-size="16" font-family="Inter, Arial, sans-serif">Benchmark scope</text>
  <rect x="854" y="268" width="250" height="132" rx="24" fill="#F4EFE6" stroke="#DCC7A1"/>
  <text x="882" y="316" fill="#4A3723" font-size="20" font-family="Inter, Arial, sans-serif" font-weight="700">Research</text>
  <text x="882" y="354" fill="#72593A" font-size="16" font-family="Inter, Arial, sans-serif">References and papers</text>
  <text x="882" y="380" fill="#72593A" font-size="16" font-family="Inter, Arial, sans-serif">Related projects and evolution</text>
  <rect x="854" y="428" width="250" height="132" rx="24" fill="#F2EFF7" stroke="#CEC3E1"/>
  <text x="882" y="476" fill="#3F2F53" font-size="20" font-family="Inter, Arial, sans-serif" font-weight="700">Overview</text>
  <text x="882" y="514" fill="#64507C" font-size="16" font-family="Inter, Arial, sans-serif">Guide, quick paths, repo alignment</text>
  <path d="M346 196H394" stroke="#8BAA44" stroke-width="4" stroke-linecap="round"/>
  <path d="M778 176H826" stroke="#7A9A3D" stroke-width="4" stroke-linecap="round"/>
  <path d="M778 330H826" stroke="#7A9A3D" stroke-width="4" stroke-linecap="round"/>
  <path d="M778 490H826" stroke="#7A9A3D" stroke-width="4" stroke-linecap="round"/>
</svg>
